<svg width="17" height="17" viewBox="0 0 17 17" fill="none" xmlns="http://www.w3.org/2000/svg">
<path d="M16.9449 6.40563C16.8181 6.0281 16.4913 5.75284 16.0979 5.69266L11.5188 4.99292L9.46201 0.611229C9.28661 0.237745 8.91178 0 8.49999 0C8.08793 0 7.71338 0.237745 7.53798 0.611229L5.48091 4.99319L0.901828 5.69293C0.508387 5.75311 0.181599 6.0281 0.0550393 6.4059C-0.0715203 6.7837 0.0240066 7.19982 0.302222 7.48533L3.6462 10.9144L2.85419 15.7657C2.78889 16.1672 2.95916 16.5709 3.29135 16.8057C3.62326 17.0405 4.0615 17.0642 4.41851 16.8672L8.50026 14.6099L12.582 16.8672C12.7431 16.9563 12.9204 17 13.0969 17C13.3117 17 13.5265 16.9347 13.7092 16.8057C14.0414 16.5712 14.2114 16.1675 14.1461 15.7657L13.3541 10.9144L16.6983 7.48533C16.976 7.19982 17.0715 6.7837 16.9449 6.40563Z" fill="#231F20"/>
</svg>
