<svg width="53" height="47" viewBox="0 0 53 47" fill="none" xmlns="http://www.w3.org/2000/svg">
<path d="M15.3727 43.1902L9.39081 43.6564C7.99492 43.7652 7.29696 43.8196 6.74263 43.5895C6.25502 43.387 5.84403 43.0357 5.56849 42.5852C5.25529 42.0733 5.2009 41.3754 5.09209 39.9794L3.27381 16.6496C3.2007 15.7115 3.16414 15.2425 3.27976 14.8215C3.38193 14.4494 3.56888 14.1059 3.82595 13.8181C4.11675 13.4925 4.53053 13.2686 5.35806 12.8208L20.8179 4.45507C23.3065 3.10846 26.249 2.87912 28.9161 3.82392L45.4854 9.69337C46.3725 10.0075 46.8158 10.1646 47.1536 10.4413C47.4522 10.6857 47.6901 10.9961 47.8486 11.3479C48.0281 11.7459 48.0646 12.2149 48.1378 13.153L49.956 36.4827C50.0648 37.8788 50.1192 38.5766 49.8891 39.1309C49.6866 39.6187 49.3353 40.0294 48.8848 40.305C48.3728 40.6183 47.675 40.6726 46.2789 40.7815L40.2971 41.2477M15.3727 43.1902L40.2971 41.2477M15.3727 43.1902L14.2071 28.2356M40.2971 41.2477L39.1315 26.293M14.2071 28.2356V28.2356C13.778 22.7294 17.8937 17.9179 23.3999 17.4888L28.3848 17.1003C33.8909 16.6711 38.7024 20.7869 39.1315 26.293V26.293M14.2071 28.2356L39.1315 26.293" stroke="white" stroke-width="5" stroke-linecap="round" stroke-linejoin="round"/>
</svg>
