<svg width="17" height="17" viewBox="0 0 17 17" fill="none" xmlns="http://www.w3.org/2000/svg">
<path d="M8.5 6.18182C8.07322 6.18182 7.72727 6.52778 7.72727 6.95455V11.025C7.26533 11.2922 6.95454 11.7916 6.95454 12.3636C6.95454 13.2172 7.64644 13.9091 8.5 13.9091C9.35355 13.9091 10.0455 13.2172 10.0455 12.3636C10.0455 11.7916 9.73466 11.2922 9.27273 11.025V6.95455C9.27273 6.52778 8.92678 6.18182 8.5 6.18182Z" fill="#0F0F0F"/>
<path d="M7.72728 3.86361C7.72728 3.43685 8.07323 3.09088 8.50001 3.09088C8.92678 3.09088 9.27273 3.43685 9.27273 3.86361C9.27273 4.29037 8.92678 4.63634 8.50001 4.63634C8.07323 4.63634 7.72728 4.29037 7.72728 3.86361Z" fill="#0F0F0F"/>
<path d="M11.5909 4.63635C11.1641 4.63635 10.8182 4.98232 10.8182 5.40908C10.8182 5.83585 11.1641 6.18181 11.5909 6.18181C12.0177 6.18181 12.3636 5.83585 12.3636 5.40908C12.3636 4.98232 12.0177 4.63635 11.5909 4.63635Z" fill="#0F0F0F"/>
<path d="M3.86364 9.27275C3.43688 9.27275 3.09091 8.9268 3.09091 8.50002C3.09091 8.07324 3.43688 7.72729 3.86364 7.72729C4.2904 7.72729 4.63637 8.07324 4.63637 8.50002C4.63637 8.9268 4.2904 9.27275 3.86364 9.27275Z" fill="#0F0F0F"/>
<path d="M4.63637 5.40908C4.63637 5.83585 4.98233 6.18181 5.4091 6.18181C5.83586 6.18181 6.18182 5.83584 6.18182 5.40908C6.18182 4.98232 5.83586 4.63635 5.4091 4.63635C4.98233 4.63635 4.63637 4.98232 4.63637 5.40908Z" fill="#0F0F0F"/>
<path d="M13.1364 9.27275C12.7096 9.27275 12.3636 8.9268 12.3636 8.50002C12.3636 8.07324 12.7096 7.72729 13.1364 7.72729C13.5631 7.72729 13.9091 8.07324 13.9091 8.50002C13.9091 8.9268 13.5631 9.27275 13.1364 9.27275Z" fill="#0F0F0F"/>
<path fill-rule="evenodd" clip-rule="evenodd" d="M8.5 17C13.1944 17 17 13.1944 17 8.5C17 3.80558 13.1944 0 8.5 0C3.80558 0 0 3.80558 0 8.5C0 13.1944 3.80558 17 8.5 17ZM8.5 15.4493C4.66203 15.4493 1.55073 12.338 1.55073 8.5C1.55073 4.66203 4.66203 1.55073 8.5 1.55073C12.338 1.55073 15.4493 4.66203 15.4493 8.5C15.4493 12.338 12.338 15.4493 8.5 15.4493Z" fill="#0F0F0F"/>
</svg>
