<svg width="17" height="17" viewBox="0 0 17 17" fill="none" xmlns="http://www.w3.org/2000/svg">
<path d="M8.5 9.5625C9.08681 9.5625 9.5625 9.08681 9.5625 8.5C9.5625 7.9132 9.08681 7.4375 8.5 7.4375C7.9132 7.4375 7.4375 7.9132 7.4375 8.5C7.4375 9.08681 7.9132 9.5625 8.5 9.5625Z" fill="black"/>
<path fill-rule="evenodd" clip-rule="evenodd" d="M17 8.5C17 13.1944 13.1944 17 8.5 17C3.80558 17 0 13.1944 0 8.5C0 3.80558 3.80558 0 8.5 0C13.1944 0 17 3.80558 17 8.5ZM6.375 6.375L4.25 11.6875L5.3125 12.75L10.625 10.625L12.75 5.3125L11.6875 4.25L6.375 6.375Z" fill="black"/>
</svg>
